<?xml version="1.0" encoding="UTF-8"?>
<svg id="_图层_2" data-name=" 图层 2" xmlns="http://www.w3.org/2000/svg" version="1.1" viewBox="0 0 72 75">
  <defs>
    <style>
      .cls-1 {
        fill: #236dff;
      }

      .cls-1, .cls-2 {
        stroke-width: 0px;
      }

      .cls-2 {
        fill: #fff;
      }
    </style>
  </defs>
  <polygon class="cls-1" points="3.5 18.7 3.5 56.3 36 75 68.5 56.3 68.5 18.7 36 0 3.5 18.7"/>
  <path class="cls-2" d="M60.3,37.5c0,1-.8,1.7-1.7,1.7H13.5c-1,0-1.7-.8-1.7-1.7s.8-1.7,1.7-1.7h45.1c1,0,1.7.8,1.7,1.7h0Z"/>
  <path class="cls-2" d="M37.7,15v45.1c0,1-.8,1.7-1.7,1.7-1,0-1.7-.8-1.7-1.7V15c0-1,.8-1.7,1.7-1.7,1,0,1.7.8,1.7,1.7Z"/>
  <path class="cls-2" d="M53.1,20.3c.7.7.7,1.8,0,2.5,0,0,0,0,0,0l-31.9,31.9c-.7.7-1.8.6-2.5,0-.6-.7-.6-1.7,0-2.4l31.9-31.9c.7-.7,1.8-.7,2.5,0,0,0,0,0,0,0h0Z"/>
  <path class="cls-2" d="M21.3,20.3l31.9,31.9c.7.7.6,1.8,0,2.5-.7.6-1.7.6-2.4,0l-31.9-31.9c-.7-.7-.7-1.8,0-2.5s1.8-.7,2.5,0Z"/>
  <path class="cls-2" d="M48.3,25.2c6.8,6.8,6.8,17.7,0,24.5-6.8,6.8-17.7,6.8-24.5,0-6.8-6.8-6.8-17.7,0-24.5,0,0,0,0,0,0,6.8-6.8,17.7-6.8,24.5,0ZM45.8,27.7c-5.4-5.4-14.2-5.5-19.6-.1-5.4,5.4-5.5,14.2-.1,19.6,0,0,0,0,.1.1,5.4,5.4,14.2,5.3,19.6-.1,5.3-5.4,5.3-14.1,0-19.5Z"/>
  <path class="cls-2" d="M53.1,20.3c.7.7.7,1.8,0,2.5,0,0,0,0,0,0l-31.9,31.9c-.7.7-1.8.6-2.5,0-.6-.7-.6-1.7,0-2.4l31.9-31.9c.7-.7,1.8-.7,2.5,0,0,0,0,0,0,0h0Z"/>
  <path class="cls-2" d="M21.3,20.3l31.9,31.9c.7.7.6,1.8,0,2.5-.7.6-1.7.6-2.4,0l-31.9-31.9c-.7-.7-.7-1.8,0-2.5s1.8-.7,2.5,0Z"/>
  <path class="cls-2" d="M36,13.2c1,0,1.7.8,1.7,1.7v45.1c0,1-.8,1.7-1.7,1.7-1,0-1.7-.8-1.7-1.7V15c0-1,.8-1.7,1.7-1.7h0Z"/>
  <path class="cls-2" d="M36,32.3c2.9,0,5.2,2.3,5.2,5.2s-2.3,5.2-5.2,5.2-5.2-2.3-5.2-5.2,2.3-5.2,5.2-5.2Z"/>
  <path class="cls-2" d="M13.5,35.8h45.1c1,0,1.7.8,1.7,1.7,0,1-.8,1.7-1.7,1.7H13.5c-1,0-1.7-.8-1.7-1.7s.8-1.7,1.7-1.7Z"/>
</svg>