<?xml version="1.0" encoding="UTF-8"?>
<svg width="18px" height="18px" viewBox="0 0 18 18" version="1.1" xmlns="http://www.w3.org/2000/svg" xmlns:xlink="http://www.w3.org/1999/xlink">
    <title>相关协议</title>
    <g id="页面-1" stroke="none" stroke-width="1">
        <g id="切图" transform="translate(-81.000000, -908.000000)">
            <g id="编组-5" transform="translate(61.000000, 32.000000)">
                <g id="首页-normal备份-6" transform="translate(20.000000, 876.000000)">
                    <path d="M15,2 C15.5522847,2 16,2.44771525 16,3 L16,15 C16,15.5522847 15.5522847,16 15,16 L3,16 C2.44771525,16 2,15.5522847 2,15 L2,3 C2,2.44771525 2.44771525,2 3,2 L15,2 Z M8.57142857,10 L6,10 L6,11 L8.57142857,11 L8.57142857,10 Z M12,8 L6,8 L6,9 L12,9 L12,8 Z M12,6 L6,6 L6,7 L12,7 L12,6 Z" id="形状结合"></path>
                </g>
            </g>
        </g>
    </g>
</svg>