<?xml version="1.0" encoding="UTF-8"?>
<svg width="18px" height="19px" viewBox="0 0 18 19" version="1.1" xmlns="http://www.w3.org/2000/svg" xmlns:xlink="http://www.w3.org/1999/xlink">
    <title>最佳实践</title>
    <g id="页面-1" stroke="none" stroke-width="1">
        <g id="切图" transform="translate(-80.000000, -872.000000)">
            <g id="编组-5" transform="translate(61.000000, 32.000000)">
                <g id="首页-normal备份-2" transform="translate(19.000000, 840.000000)">
                    <g id="编组-12" transform="translate(2.000000, 0.000000)">
                        <g id="编组-16" transform="translate(9.072452, 8.031669) rotate(-14.000000) translate(-9.072452, -8.031669) translate(2.899628, 1.293179)">
                            <polygon id="矩形" points="0.0482585446 1.35138167e-13 1.04825854 1.35138167e-13 1 13.4769798 2.2155751e-14 13.4769798"></polygon>
                            <path d="M2.04825854,1.07605749 C2.70644388,0.361084394 3.65109533,0.00359784546 4.8822129,0.00359784546 C6.72888926,0.00359784546 7.53284118,0.845994477 9.06920462,1.07605749 C10.0934469,1.22943283 11.1855941,1.05732439 12.3456461,0.559732167 L12.2212386,8.6710293 C11.3294565,8.963221 10.2787786,9.06287497 9.06920462,8.96999122 C7.2548437,8.83066558 6.72888926,7.8114894 4.8822129,7.8114894 C3.65109533,7.8114894 2.70644388,8.0980027 2.04825854,8.6710293 L2.04825854,1.07605749 Z" id="路径"></path>
                        </g>
                        <path d="M7,12.6945851 C7.59538522,12.6945851 8.1737216,12.7140154 8.72772952,12.7518374 L9.27335834,12.7957516 L9.80115049,12.851696 L10.3094883,12.9194399 C12.7998452,13.2872735 14.5,14.0889327 14.5,15.1945851 C14.5,16.3739476 12.5656016,17.2074334 9.80115049,17.5374742 L9.27335834,17.5934186 L8.72772952,17.6373327 C8.63539487,17.6436364 8.54238443,17.6494292 8.44873189,17.6547063 L7.87938125,17.6801422 C7.78329517,17.6833373 7.68663441,17.6860071 7.58943266,17.6881468 L7,17.6945851 L6.41056734,17.6881468 C6.31336559,17.6860071 6.21670483,17.6833373 6.12061875,17.6801422 L5.55126811,17.6547063 C5.45761557,17.6494292 5.36460513,17.6436364 5.27227048,17.6373327 L4.72664166,17.5934186 L4.19884951,17.5374742 C1.43439838,17.2074334 -0.5,16.3739476 -0.5,15.1945851 C-0.5,14.2813604 0.546450081,13.6325056 2.27372462,13.2030513 L2.51344771,13.1458451 L2.73669812,14.1206062 C1.31145079,14.4470319 0.5,14.9193858 0.5,15.1945851 C0.5,15.5435653 1.31774022,15.9420016 2.61404445,16.2404821 L3.03891602,16.3312422 L3.4932299,16.4143114 C3.57127053,16.4274573 3.65043903,16.4402392 3.73068595,16.4526352 L4.22471279,16.5222077 C4.39343832,16.5437391 4.56608191,16.5635531 4.74224795,16.5814753 L5.28091784,16.6293924 C5.8293639,16.6712858 6.40595167,16.6945851 7,16.6945851 C7.59404833,16.6945851 8.1706361,16.6712858 8.71908216,16.6293924 L9.25775205,16.5814753 C9.43391809,16.5635531 9.60656168,16.5437391 9.77528721,16.5222077 L10.2693141,16.4526352 C10.349561,16.4402392 10.4287295,16.4274573 10.5067701,16.4143114 L10.961084,16.3312422 L11.3859556,16.2404821 C12.6822598,15.9420016 13.5,15.5435653 13.5,15.1945851 C13.5,14.9374417 13.0560192,14.6534469 12.3037477,14.4023741 L11.9628664,14.2969613 L11.5866087,14.1966254 C11.521083,14.1803839 11.4541821,14.1643976 11.3859556,14.1486881 L10.961084,14.057928 L10.5067701,13.9748587 C10.4287295,13.9617128 10.349561,13.948931 10.2693141,13.9365349 L9.77528721,13.8669625 C9.60656168,13.845431 9.43391809,13.8256171 9.25775205,13.8076949 L8.71908216,13.7597777 C8.26204377,13.7248666 7.78546254,13.702868 7.29551967,13.6965049 L7,13.6945851 L7,12.6945851 Z" id="路径"></path>
                    </g>
                </g>
            </g>
        </g>
    </g>
</svg>