<?xml version="1.0" encoding="UTF-8"?>
<svg width="18px" height="19px" viewBox="0 0 18 19" version="1.1" xmlns="http://www.w3.org/2000/svg" xmlns:xlink="http://www.w3.org/1999/xlink">
    <title>最佳实践</title>
    <g id="页面-1" stroke="none" stroke-width="1">
        <g id="切图" transform="translate(-80.000000, -872.000000)">
            <g id="编组-5" transform="translate(61.000000, 32.000000)">
                <g id="首页-normal备份-2" transform="translate(19.000000, 840.000000)">
                    <g id="编组-12" transform="translate(2.000000, 0.000000)">
                        <g id="编组-16" transform="translate(9.072452, 8.031669) rotate(-14.000000) translate(-9.072452, -8.031669) translate(2.899628, 1.293179)">
                            <polygon id="矩形" points="0.0482585446 1.35138167e-13 1.04825854 1.35138167e-13 1 13.4769798 2.2155751e-14 13.4769798"></polygon>
                            <path d="M2.04825854,1.07605749 C2.70644388,0.361084394 3.65109533,0.00359784546 4.8822129,0.00359784546 C6.72888926,0.00359784546 7.53284118,0.845994477 9.06920462,1.07605749 C10.0934469,1.22943283 11.1855941,1.05732439 12.3456461,0.559732167 L12.2212386,8.6710293 C11.3294565,8.963221 10.2787786,9.06287497 9.06920462,8.96999122 C7.2548437,8.83066558 6.72888926,7.8114894 4.8822129,7.8114894 C3.65109533,7.8114894 2.70644388,8.0980027 2.04825854,8.6710293 L2.04825854,1.07605749 Z" id="路径"></path>
                        </g>
                        <path d="M2.62507291,13.6332256 C1.02472178,13.9997555 0,14.5629793 0,15.1945851 C0,16.2991546 3.13400675,17.1945851 7,17.1945851 C10.8659932,17.1945851 14,16.2991546 14,15.1945851 C14,14.0900156 10.8659932,13.1945851 7,13.1945851" id="路径" stroke="#A2A2A2"></path>
                    </g>
                </g>
            </g>
        </g>
    </g>
</svg>