<?xml version="1.0" standalone="no"?><!DOCTYPE svg PUBLIC "-//W3C//DTD SVG 1.1//EN" "http://www.w3.org/Graphics/SVG/1.1/DTD/svg11.dtd"><svg t="1732688162332" class="icon" viewBox="0 0 1024 1024" version="1.1" xmlns="http://www.w3.org/2000/svg" p-id="13664" width="130" height="130" xmlns:xlink="http://www.w3.org/1999/xlink"><path d="M914.69375 556.55l42.35625 37.0125L880.775 680.75H962v56.25h-112.5v56.25h112.5v56.25h-112.5v112.5h-56.25v-112.5h-112.5v-56.25h112.5v-56.25h-112.5v-56.25h83.1375l-76.1625-87.1875 42.3-37.0125 92.30625 105.525 92.3625-105.525zM849.5 62v393.75h-56.25V118.25H118.25v787.5h450v56.25H62V62h787.5zM568.25 568.25v56.25H174.5V568.25h393.75z m112.5-168.75v56.25H174.5V399.5h506.25zM512 230.75v56.25H174.5V230.75h337.5z" p-id="13665" fill="#707070"></path></svg>