<?xml version="1.0" encoding="UTF-8"?>
<svg width="18px" height="18px" viewBox="0 0 18 18" version="1.1" xmlns="http://www.w3.org/2000/svg" xmlns:xlink="http://www.w3.org/1999/xlink">
    <title>付费计划与账单</title>
    <g id="页面-1" stroke="none" stroke-width="1">
        <g id="切图" transform="translate(-81.000000, -764.000000)">
            <g id="编组-5" transform="translate(61.000000, 32.000000)">
                <g id="付费-normal" transform="translate(20.000000, 732.000000)">
                    <g id="编组-15" transform="translate(1.000000, 2.000000)">
                        <g id="编组-13" transform="translate(5.187500, 4.147748)"></g>
                        <path d="M14.875,3 C15.4963203,3 16,3.50367966 16,4.125 L16,12.875 C16,13.4963203 15.4963203,14 14.875,14 L1.125,14 C0.503679656,14 7.6089797e-17,13.4963203 0,12.875 L0,4.125 C-7.6089797e-17,3.50367966 0.503679656,3 1.125,3 L14.875,3 Z M9.42623782,5.14774756 L7.9035,6.67074756 L6.38074269,5.14774756 L5.58524756,5.94324269 L7.0405,7.39774756 L5.1875,7.39774756 L5.1875,8.52274756 L7.4375,8.52274756 L7.4375,9.64774756 L5.1875,9.64774756 L5.1875,10.7727476 L7.4375,10.7727476 L7.4375,12.0625 L8.5625,12.0625 L8.5625,10.7727476 L10.8125,10.7727476 L10.8125,9.64774756 L8.5625,9.64774756 L8.5625,8.52274756 L10.8125,8.52274756 L10.8125,7.39774756 L8.7655,7.39774756 L10.221733,5.94324269 L9.42623782,5.14774756 Z" id="形状结合"></path>
                        <path d="M12.875,0 C13.4963203,-1.14134695e-16 14,0.503679656 14,1.125 L14,1.75 L2,1.75 L2,1.125 C2,0.503679656 2.50367966,1.14134695e-16 3.125,0 L12.875,0 Z" id="形状结合"></path>
                    </g>
                </g>
            </g>
        </g>
    </g>
</svg>