<?xml version="1.0" standalone="no"?><!DOCTYPE svg PUBLIC "-//W3C//DTD SVG 1.1//EN" "http://www.w3.org/Graphics/SVG/1.1/DTD/svg11.dtd"><svg t="1732255430603" class="icon" viewBox="0 0 1024 1024" version="1.1" xmlns="http://www.w3.org/2000/svg" p-id="17374" data-spm-anchor-id="a313x.search_index.0.i3.379a3a81D3xJlg" width="150" height="150" xmlns:xlink="http://www.w3.org/1999/xlink"><path d="M456.01472 24v432h-432V112c0-24 6.4-41.6 20.8-56 30.4-30.4 83.2-32 83.2-32h328M480.01472 0H128.01472S-1.58528 0 0.01472 112v368h480V0z" fill="#515151" p-id="17375"></path><path d="M448.01472 16H96.01472v16h352V16z" fill="#515151" p-id="17376"></path><path d="M224.01472 128h32v224h-32z" fill="#515151" p-id="17377"></path><path d="M128.01472 224h224v32H128.01472z" fill="#515151" p-id="17378"></path><path d="M456.01472 552v432H128.01472s-54.4 0-83.2-32c-14.4-14.4-20.8-32-20.8-56V552h432M480.01472 528H0.01472v368c-1.6 112 128 112 128 112h352V528z" fill="#515151" p-id="17379"></path><path d="M448.01472 976H96.01472v16h352v-16z" fill="#515151" p-id="17380"></path><path d="M149.50272 835.872l158.4-158.384 22.608 22.624-158.384 158.4z" fill="#515151" p-id="17381"></path><path d="M149.50272 700.112l22.624-22.624 158.4 158.4-22.64 22.624z" fill="#515151" p-id="17382"></path><path d="M896.01472 24s54.4 0 83.2 32c14.4 14.4 20.8 32 20.8 56v344h-432v-432H896.01472M896.01472 0H544.01472v480h480V112c1.6-112-128-112-128-112z" fill="#515151" p-id="17383"></path><path d="M928.01472 16H576.01472v16h352V16z" fill="#515151" p-id="17384"></path><path d="M672.01472 224h224v32H672.01472z" fill="#515151" p-id="17385"></path><path d="M984.01472 552V896c0 24-6.4 41.6-20.8 56-30.4 30.4-83.2 32-83.2 32H552.01472v-432h432M1008.01472 528H528.01472v480h352s129.6 0 128-112V528z" fill="#515151" p-id="17386"></path><path d="M896.01472 608h-64l-48 112h-32l-48-112h-64l80 128 16 32h-80v32h96v32h-96v32h96v64h32v-64h96v-32h-96v-32h96v-32h-80z" fill="#515151" p-id="17387"></path></svg>