<?xml version="1.0" encoding="UTF-8"?>
<svg width="18px" height="18px" viewBox="0 0 18 18" version="1.1" xmlns="http://www.w3.org/2000/svg" xmlns:xlink="http://www.w3.org/1999/xlink">
    <title>CI</title>
    <g id="页面-1" stroke="none" stroke-width="1">
        <g id="切图" transform="translate(-81.000000, -656.000000)">
            <g id="编组-5" transform="translate(61.000000, 32.000000)">
                <g id="图标" transform="translate(20.000000, 624.000000)">
                    <g id="huojianxiaoxi_fill" transform="translate(1.000000, 1.000000)">
                        <path d="M15.1669227,0.0418397132 L15.2121959,0.0472621134 C15.6540616,0.100746697 15.9877577,0.477625918 15.9943831,0.927595509 L15.9944714,0.941241136 C16.0997259,5.15220543 14.7015812,8.35415516 11.8431239,10.5119343 L11.8357035,10.7273291 C11.7594459,12.9449788 10.7222495,14.6751053 8.77130872,15.8533795 L8.65406235,15.924274 C8.4025204,16.0761236 8.0771943,15.9924573 7.92752794,15.7372236 C7.90190998,15.6935531 7.88249774,15.6463872 7.86988752,15.5971823 L7.83565661,15.4631907 C7.59952962,14.5397918 7.38999231,13.8325719 7.20960648,13.3467293 C7.12524386,13.1196831 7.04931751,12.9467265 6.98555968,12.8321615 C6.98368251,12.8287557 6.98178324,12.8254171 6.97988398,12.8220113 C6.71029904,12.8985971 6.21693231,13.0184052 5.49987214,13.1816598 C5.31464982,13.2238291 5.12125625,13.1622109 4.99305598,13.0200857 L2.93988629,10.7457249 C2.81919474,10.6119799 2.77303823,10.4254672 2.8171188,10.2497098 C2.95092851,9.71685811 3.04564874,9.35440875 3.10121323,9.16229445 C3.09154024,9.15597579 3.08180099,9.14976916 3.07197341,9.14374178 C2.96137446,9.0750207 2.79366511,8.99204901 2.5729089,8.89856863 C2.10067699,8.69874646 1.41139907,8.46155006 0.510088291,8.18995951 L0.379215811,8.15056868 C0.0986769787,8.06593891 -0.0612586446,7.76660897 0.0220660042,7.48188815 C0.0363104777,7.43322099 0.0573569633,7.38674967 0.0844325052,7.34402026 L0.158282923,7.22752828 C1.38708408,5.29049905 3.12742748,4.29927533 5.31449523,4.29927533 L5.34062114,4.29927533 C5.89549307,3.51775509 6.51783301,2.84082892 7.2083035,2.26928105 C9.28762119,0.548072308 11.9516469,-0.191077023 15.1669227,0.0418397132 Z M2.90925515,12.2133581 C3.40330649,12.2133581 3.81507115,12.6310173 3.81507115,13.1322756 C3.81507115,13.5291191 3.54747381,13.9050573 3.17694083,14.0095617 L1.61250012,14.4898923 L1.60731027,14.4898923 C1.58860474,14.489713 1.57124635,14.4881446 1.57124635,14.4689869 L2.0446929,12.8607747 C2.16823334,12.4639312 2.5182057,12.2133581 2.90925515,12.2133581 Z M10.707232,11.1819369 C9.90123777,11.6374409 9.01898588,12.0377798 8.06089597,12.3826176 C8.13267045,12.5377162 8.20530622,12.715311 8.28001793,12.9164551 C8.43365948,13.3304397 8.59885121,13.8539254 8.77665315,14.4890184 C9.85653884,13.6153398 10.4938079,12.5215386 10.707232,11.1819369 Z M4.70129825,5.3469413 C3.39409727,5.49697598 2.16158592,6.23630456 1.23516512,7.26071248 C2.07773125,7.40066418 2.50544089,7.53911464 2.91124275,7.72818163 C3.10430505,7.81807696 3.27477496,7.90436483 3.42358002,7.98821037 C3.80411726,7.03182893 4.22992764,6.15122666 4.70129825,5.34685168 L4.70129825,5.3469413 Z M10.7067241,3.50224972 C9.76208362,3.50224972 8.99628306,4.27922141 8.99628306,5.23770907 C8.99628306,6.19612951 9.76208362,6.9731012 10.7067241,6.9731012 C11.6513425,6.9731012 12.4172314,6.19612951 12.4172314,5.23770907 C12.4172314,4.27922141 11.6513425,3.50224972 10.7067241,3.50224972 Z" id="Fill-1"></path>
                        <polygon id="Fill-3" points="3.16059932 9.14921795 3.13559932 9.16171795 3.14929932 9.18791795"></polygon>
                    </g>
                </g>
            </g>
        </g>
    </g>
</svg>