<?xml version="1.0" encoding="UTF-8"?>
<svg width="18px" height="18px" viewBox="0 0 18 18" version="1.1" xmlns="http://www.w3.org/2000/svg" xmlns:xlink="http://www.w3.org/1999/xlink">
    <title>云账单-图标</title>
    <g id="页面-1" stroke="none" stroke-width="1" fill="none" fill-rule="evenodd">
        <g id="切图" transform="translate(-25.000000, -763.000000)" fill="#A2A2A2">
            <g id="编组-30备份-2" transform="translate(25.000000, 763.000000)">
                <g id="编组-31" transform="translate(1.406250, 1.968750)">
                    <path d="M7.59375,-0.84375 C10.2474573,-0.84375 12.4976774,0.981572255 13.0527153,3.46002963 L13.062,3.507 L13.2193524,3.5561025 C14.8015712,4.08730442 15.9408189,5.52962822 16.0261128,7.22959209 L16.03125,7.43478261 C16.03125,9.70038254 14.1695469,11.53125 11.88,11.53125 L11.88,9.84375 C13.2438167,9.84375 14.34375,8.7620351 14.34375,7.43478261 C14.34375,6.22694089 13.4273074,5.20592993 12.2100248,5.04709099 L11.5429381,4.96004519 L11.4792382,4.29032586 C11.2945797,2.34888947 9.6164974,0.84375 7.59375,0.84375 C5.57099048,0.84375 3.89293677,2.34889536 3.70835661,4.29033701 L3.64467874,4.96011026 L2.97753786,5.04713969 C1.76019964,5.20594312 0.84375,6.22692924 0.84375,7.43478261 C0.84375,8.7620351 1.94368325,9.84375 3.3075,9.84375 L3.3075,11.53125 C1.01795313,11.53125 -0.84375,9.70038254 -0.84375,7.43478261 C-0.84375,5.64644338 0.322668735,4.10852977 1.96823751,3.55612172 L2.125,3.507 L2.13484822,3.46009831 C2.67347744,1.05450041 4.80911501,-0.735811263 7.3606769,-0.839042748 L7.59375,-0.84375 Z" id="路径" fill-rule="nonzero"></path>
                    <path d="M10.2,6.1875 C10.779899,6.1875 11.25,6.65760101 11.25,7.2375 L11.25,13.575 C11.25,14.154899 10.779899,14.625 10.2,14.625 L4.9875,14.625 C4.40760101,14.625 3.9375,14.154899 3.9375,13.575 L3.9375,7.2375 C3.9375,6.65760101 4.40760101,6.1875 4.9875,6.1875 L10.2,6.1875 Z M9,8.4375 L6.1875,8.4375 L6.1875,9.5625 L9,9.5625 L9,8.4375 Z" id="形状结合"></path>
                </g>
            </g>
        </g>
    </g>
</svg>