<?xml version="1.0" encoding="utf-8"?>
<!-- Generator: Adobe Illustrator 26.0.3, SVG Export Plug-In . SVG Version: 6.00 Build 0)  -->
<svg version="1.1" id="图层_1" xmlns="http://www.w3.org/2000/svg" xmlns:xlink="http://www.w3.org/1999/xlink" x="0px" y="0px"
	 viewBox="0 0 18 18" style="enable-background:new 0 0 18 18;" xml:space="preserve">
<g id="页面-1">
	<g id="欢迎使用" transform="translate(-20.000000, -859.000000)">
		<g id="编组-5" transform="translate(0.000000, 55.000000)">
			<g id="首页-normal备份-2" transform="translate(20.000000, 803.000000)">
				<g id="编组" transform="translate(0.000000, 5.000000)">
					<g>
						<g id="Clip-2">
						</g>
						<defs>
							<filter id="Adobe_OpacityMaskFilter" filterUnits="userSpaceOnUse" x="0" y="0" width="7.2" height="10">
								<feColorMatrix  type="matrix" values="1 0 0 0 0  0 1 0 0 0  0 0 1 0 0  0 0 0 1 0"/>
							</filter>
						</defs>
						
							<mask maskUnits="userSpaceOnUse" x="0" y="0" width="7.2" height="10" id="mask-2_00000143611735856280019150000010406763692747407520_">
							<g class="st0">
								<polygon id="path-1_00000144329948306363437200000006901470689499034301_" class="st1" points="0,0 7.2,0 7.2,10 0,10 
																	"/>
							</g>
						</mask>
						<path id="Fill-1" class="st2" d="M7.2,0.8c0,0.1,0,0.3-0.1,0.4C7,1.3,6.9,1.3,6.7,1.3c-0.2,0-0.3,0-0.3-0.1
							C6.3,1.1,6.3,0.9,6.2,0.7c0-0.1-0.1-0.1-0.1-0.2c0,0-0.1-0.1-0.2-0.1c-0.1,0-0.2,0-0.2,0.1C5.7,0.7,5.6,0.8,5.6,0.9L5,3h0.9
							L5.7,3.5H4.8l-0.9,3C3.8,7.1,3.6,7.7,3.3,8.3C3.1,8.8,2.8,9.2,2.5,9.5C2.2,9.8,1.7,10,1.2,10c-0.4,0-0.7-0.1-0.9-0.3
							C0.1,9.6,0,9.4,0,9.2C0,9,0.1,8.8,0.2,8.7c0.1-0.1,0.3-0.2,0.4-0.2c0.2,0,0.3,0.1,0.4,0.2C1.1,8.9,1.1,9,1.1,9.2
							c0,0.2,0.1,0.4,0.3,0.4s0.3-0.1,0.4-0.3C2,9,2.1,8.7,2.2,8.3l1.4-4.8H2.7L2.9,3h0.9l0.1-0.3C4,2.2,4.1,1.7,4.3,1.4
							C4.5,1,4.7,0.7,5,0.4C5.3,0.1,5.7,0,6.2,0c0.2,0,0.3,0,0.5,0.1C6.9,0.2,7,0.2,7.1,0.4C7.2,0.5,7.2,0.6,7.2,0.8"/>
					</g>
					<path id="Fill-3" class="st3" d="M15.5,4.7h-0.5C15,4.5,15.1,4.2,15.1,4c0-0.1,0-0.1,0-0.2c0-0.1-0.1-0.1-0.2-0.1
						c-0.1,0-0.1,0-0.1,0c-0.1,0.1-0.2,0.2-0.3,0.3l-1,1.1l0.4,1.5C13.9,6.8,14,7,14,7.1c0,0.1,0.1,0.2,0.2,0.2
						c0.1,0,0.2-0.1,0.3-0.3c0.1-0.2,0.2-0.4,0.2-0.5h0.5c-0.1,0.4-0.2,0.7-0.4,1c-0.2,0.3-0.4,0.4-0.5,0.6
						c-0.2,0.1-0.4,0.2-0.5,0.2c-0.3,0-0.5-0.1-0.6-0.3c-0.1-0.2-0.3-0.5-0.4-0.8l-0.2-0.7l-1.2,1.3c-0.3,0.4-0.6,0.6-0.8,0.6
						c-0.3,0-0.5-0.2-0.5-0.6c0-0.3,0.1-0.6,0.2-0.9h0.6c-0.1,0.4-0.2,0.6-0.2,0.7c0,0.1,0,0.2,0.1,0.2c0.1,0,0.2-0.1,0.3-0.2
						l1.4-1.5l-0.3-0.9C12,4.8,12,4.6,12,4.5c0-0.1-0.1-0.1-0.1-0.2c0,0-0.1-0.1-0.2-0.1c-0.2,0-0.4,0.3-0.5,0.8h-0.5
						c0.1-0.4,0.2-0.7,0.4-1c0.1-0.3,0.3-0.4,0.5-0.6c0.2-0.1,0.4-0.2,0.6-0.2c0.3,0,0.5,0.1,0.7,0.3c0.2,0.2,0.3,0.5,0.4,0.8
						l0.1,0.3l0.8-0.9c0.3-0.3,0.6-0.5,0.9-0.5c0.2,0,0.4,0.1,0.5,0.3c0.1,0.2,0.1,0.3,0.1,0.5C15.6,4.3,15.5,4.5,15.5,4.7"/>
					<path id="Fill-5" class="st3" d="M9.2,1.9c0,0.1,0,0.2-0.1,0.4C9,2.4,8.9,2.6,8.8,2.7C8.7,3.1,8.5,3.5,8.5,3.8
						C8.4,4.2,8.4,4.5,8.4,4.9c0,0.3,0,0.7,0.1,1c0.1,0.3,0.2,0.6,0.3,1C8.8,7,8.9,7.2,9,7.5c0.1,0.2,0.2,0.4,0.2,0.4
						c0,0.1,0,0.1,0,0.1c0,0-0.1,0-0.1,0C9,8.1,8.9,8.1,8.8,8C8.7,7.9,8.6,7.7,8.4,7.6C8.1,7.2,7.9,6.7,7.8,6.3S7.6,5.4,7.6,4.9
						c0-0.4,0.1-0.9,0.2-1.3C7.9,3.2,8,2.8,8.3,2.5C8.4,2.2,8.6,2,8.7,1.9C8.8,1.8,8.9,1.7,9,1.7c0,0,0.1,0,0.1,0
						C9.2,1.8,9.2,1.8,9.2,1.9"/>
					<path id="Fill-7" class="st3" d="M16.4,7.9c0-0.1,0-0.2,0.1-0.3c0.1-0.2,0.2-0.3,0.2-0.4C16.9,6.7,17,6.3,17.1,6
						c0.1-0.3,0.1-0.7,0.1-1.1c0-0.3,0-0.7-0.1-1c-0.1-0.3-0.2-0.6-0.3-1c-0.1-0.2-0.2-0.4-0.3-0.6c-0.1-0.2-0.2-0.4-0.2-0.4
						c0-0.1,0-0.1,0-0.1c0,0,0.1,0,0.1,0c0.1,0,0.2,0,0.3,0.1c0.1,0.1,0.2,0.2,0.3,0.4c0.3,0.4,0.5,0.8,0.6,1.3S18,4.4,18,4.9
						c0,0.4-0.1,0.9-0.2,1.3c-0.1,0.4-0.3,0.8-0.5,1.2c-0.2,0.3-0.3,0.4-0.4,0.6c-0.1,0.1-0.2,0.2-0.3,0.2c0,0-0.1,0-0.1-0.1
						C16.4,8,16.4,8,16.4,7.9"/>
				</g>
			</g>
		</g>
	</g>
</g>
</svg>
