<?xml version="1.0" encoding="utf-8"?>
<!-- Generator: Adobe Illustrator 26.0.3, SVG Export Plug-In . SVG Version: 6.00 Build 0)  -->
<svg version="1.1" id="图层_1" xmlns="http://www.w3.org/2000/svg" xmlns:xlink="http://www.w3.org/1999/xlink" x="0px" y="0px"
	 viewBox="0 0 18 18" style="enable-background:new 0 0 18 18;" xml:space="preserve">
<path class="st0" d="M17.3,12.5c-0.2,0.2-0.4,0.4-0.7,0.6c-0.8,0.5-1.9,0.5-2.7,0L13.7,13L9,10.3l0,0L8.3,9.9L6.8,9L3.3,7l0,0
	L3.1,6.9c-0.2-0.1-0.4-0.1-0.5,0C2.4,6.9,2.3,7.1,2.3,7.3l0,0.1l0,2.6l0,0.7c0,0.4,0.4,0.7,0.8,0.5l0.6-0.4l2.2-1.3l0,0l0,0l2,1.2
	l0.2,0.1l0,0l5.7,3.3c0,0,0,0,0,0c0.5,0.3,0.7,1,0.4,1.5c-0.3,0.5-1,0.7-1.5,0.4c0,0,0,0,0,0l0,0l-6.8-3.9l-1.7,1c0,0,0,0,0,0
	c-0.8,0.5-1.9,0.5-2.7,0c-0.3-0.2-0.5-0.4-0.7-0.6C0.3,12,0,11.4,0,10.7l0-2l0-1.4c0-0.4,0.1-0.7,0.2-1C0.4,6,0.5,5.7,0.7,5.5
	c0.2-0.2,0.4-0.4,0.7-0.6c0.8-0.5,1.9-0.5,2.7,0l2.5,1.5l0.4,0.2c0,0,0,0,0,0L9,7.7l0,0l0.7,0.4L11.2,9l3.6,2.1l0.2,0.1
	c0.4,0.2,0.8-0.1,0.8-0.5l0-0.1l0-2.6l0-0.7c0-0.2-0.1-0.4-0.3-0.5c-0.2-0.1-0.4-0.1-0.5,0l-0.6,0.4l-1.2,0.7l-1,0.6l-2-1.2
	c0,0,0,0,0,0L9.9,7.2L4.1,3.9l0,0c0,0,0,0,0,0c-0.5-0.3-0.7-1-0.4-1.5C4,1.8,4.7,1.7,5.2,2c0,0,0,0,0,0l0,0l6.9,4l0,0l1.7-1
	c0.8-0.5,1.9-0.5,2.7,0c0.3,0.2,0.5,0.4,0.7,0.6C17.7,6,18,6.6,18,7.3l0,2l0,1.4c0,0.4-0.1,0.7-0.2,1C17.6,12,17.5,12.3,17.3,12.5z"
	/>
</svg>
