<?xml version="1.0" encoding="UTF-8"?>
<svg width="18px" height="18px" viewBox="0 0 18 18" version="1.1" xmlns="http://www.w3.org/2000/svg" xmlns:xlink="http://www.w3.org/1999/xlink">
    <title>DCA</title>
    <g id="页面-1" stroke="none" stroke-width="1">
        <g id="切图" transform="translate(-80.000000, -1015.000000)">
            <g id="编组-5" transform="translate(19.000000, 31.000000)">
                <g id="编组-25" transform="translate(61.000000, 984.000000)">
                    <g id="编组-27" transform="translate(0.000000, 2.000000)">
                        <path d="M1,14 C0.44771525,14 -1.5440923e-16,13.5522847 0,13 L0,1 C-6.76353751e-17,0.44771525 0.44771525,-3.42636147e-16 1,0 L15,0 C15.7796961,0 16.4204487,0.594888083 16.4931334,1.35553999 L16.5,1.5 L16.5,4.5 L15.5,4.5 L15.5,1.5 C15.5,1.25454011 15.3231248,1.05039163 15.0898756,1.00805567 L15,1 L5,1 L5,13 L8.67797852,13 L8.67797852,14 L1,14 Z M3.5,5.5 L1,5.5 L1,6.5 L3.5,6.5 L3.5,5.5 Z M3.5,3.5 L1,3.5 L1,4.5 L3.5,4.5 L3.5,3.5 Z" id="形状结合"></path>
                        <path d="M17.8971143,7.46132487 L13.5,4.92264973 L9.10288568,7.46132487 L9.10288568,12.5386751 L13.5,15.0773503 L17.8971143,12.5386751 L17.8971143,7.46132487 Z M13.5,6.077 L16.897,8.039 L16.897,11.96 L13.5,13.922 L10.102,11.96 L10.102,8.039 L13.5,6.077 Z" id="多边形"></path>
                        <path d="M13.5,8 C12.3954305,8 11.5,8.8954305 11.5,10 C11.5,11.1045695 12.3954305,12 13.5,12 C14.6045695,12 15.5,11.1045695 15.5,10 C15.5,8.8954305 14.6045695,8 13.5,8 Z M13.5,9 C14.0522847,9 14.5,9.44771525 14.5,10 C14.5,10.5522847 14.0522847,11 13.5,11 C12.9477153,11 12.5,10.5522847 12.5,10 C12.5,9.44771525 12.9477153,9 13.5,9 Z" id="椭圆形"></path>
                    </g>
                </g>
            </g>
        </g>
    </g>
</svg>