<?xml version="1.0" encoding="UTF-8"?>
<svg width="18px" height="18px" viewBox="0 0 18 18" version="1.1" xmlns="http://www.w3.org/2000/svg" xmlns:xlink="http://www.w3.org/1999/xlink">
    <title>事件</title>
    <g id="页面-1" stroke="none" stroke-width="1">
        <g id="切图" transform="translate(-81.000000, -269.000000)">
            <g id="编组-5" transform="translate(61.000000, 32.000000)">
                <g id="inform-1" transform="translate(20.000000, 237.000000)">
                    <path d="M9,1 C11.9455187,1 14.3333333,3.38781467 14.3333333,6.33333333 L14.333,10.666 L14.6666667,10.6666667 C15.4030463,10.6666667 16,11.2636203 16,12 C16,12.7363797 15.4030463,13.3333333 14.6666667,13.3333333 L3.33333333,13.3333333 C2.59695367,13.3333333 2,12.7363797 2,12 C2,11.2636203 2.59695367,10.6666667 3.33333333,10.6666667 L3.666,10.666 L3.66666667,6.33333333 C3.66666667,3.38781467 6.05448133,1 9,1 Z" id="形状结合"></path>
                    <path d="M7,14 C7,15.1045695 7.8954305,16 9,16 C10.1045695,16 11,15.1045695 11,14" id="路径"></path>
                </g>
            </g>
        </g>
    </g>
</svg>