<?xml version="1.0" encoding="UTF-8"?>
<svg width="18px" height="18px" viewBox="0 0 18 18" version="1.1" xmlns="http://www.w3.org/2000/svg" xmlns:xlink="http://www.w3.org/1999/xlink">
    <title>常见问题</title>
    <g id="页面-1" stroke="none" stroke-width="1">
        <g id="切图" transform="translate(-81.000000, -943.000000)">
            <g id="编组-5" transform="translate(61.000000, 32.000000)">
                <g id="图标" transform="translate(20.000000, 878.000000)">
                    <g id="编组-23" transform="translate(0.000000, 33.000000)">
                        <path d="M9,1 C13.418278,1 17,4.581722 17,9 C17,13.418278 13.418278,17 9,17 C4.581722,17 1,13.418278 1,9 C1,4.581722 4.581722,1 9,1 Z M7.85714286,13 C7.54155157,13 7.28571429,13.2558373 7.28571429,13.5714286 C7.28571429,13.8870199 7.54155157,14.1428571 7.85714286,14.1428571 C8.17273414,14.1428571 8.42857143,13.8870199 8.42857143,13.5714286 C8.42857143,13.2558373 8.17273414,13 7.85714286,13 Z M12.9285714,4.5 L6.21428571,4.5 L6.21428571,5.5 L11.928,5.5 L11.928,8.888 L7.35714286,8.88857143 L7.35714286,12.3571429 L8.35714286,12.3571429 L8.357,9.888 L12.9285714,9.88857143 L12.9285714,4.5 Z" id="形状结合"></path>
                    </g>
                </g>
            </g>
        </g>
    </g>
</svg>