<?xml version="1.0" encoding="UTF-8"?>
<svg width="18px" height="18px" viewBox="0 0 18 18" version="1.1" xmlns="http://www.w3.org/2000/svg" xmlns:xlink="http://www.w3.org/1999/xlink">
    <title>快速入门</title>
    <g id="页面-1" stroke="none" stroke-width="1">
        <g id="切图" transform="translate(-81.000000, -89.000000)">
            <g id="编组-5" transform="translate(61.000000, 32.000000)">
                <g id="快速入门" transform="translate(20.000000, 57.000000)">
                    <g id="编组-12" transform="translate(2.000000, 2.000000)">
                        <path d="M9,4.65161133 L10.5,3.20745846 L12,4.65161133 L12,0 L13,0 C13.5522847,-1.01453063e-16 14,0.44771525 14,1 L14,14 C14,14.5522847 13.5522847,15 13,15 L3,15 L3,0 L9,0 L9,4.65161133 Z" id="形状结合"></path>
                        <path d="M1,0 L2,0 L2,0 L2,15 L1,15 C0.44771525,15 6.76353751e-17,14.5522847 0,14 L0,1 C-6.76353751e-17,0.44771525 0.44771525,-1.20591542e-16 1,0 Z" id="矩形备份-2"></path>
                    </g>
                </g>
            </g>
        </g>
    </g>
</svg>