<?xml version="1.0" encoding="UTF-8"?>
<svg width="18px" height="18px" viewBox="0 0 18 18" version="1.1" xmlns="http://www.w3.org/2000/svg" xmlns:xlink="http://www.w3.org/1999/xlink">
    <title>AI</title>
    <g id="页面-1" stroke="none" stroke-width="1" fill="none" fill-rule="evenodd">
        <g id="切图" transform="translate(-20.000000, -572.000000)" fill="#A2A2A2">
            <g id="编组-33备份-2" transform="translate(20.000000, 572.000000)">
                <g id="编组-30" transform="translate(0.000000, 2.500000)">
                    <path d="M14.5,-0.75 C15.4664983,-0.75 16.25,0.0335016878 16.25,1 L16.25,9.88888889 C16.25,10.8553872 15.4664983,11.6388889 14.5,11.6388889 L3.5,11.6388889 C2.53350169,11.6388889 1.75,10.8553872 1.75,9.88888889 L1.75,1 C1.75,0.0335016878 2.53350169,-0.75 3.5,-0.75 L14.5,-0.75 Z M14.5,0.75 L3.5,0.75 C3.36192881,0.75 3.25,0.861928813 3.25,1 L3.25,9.88888889 C3.25,10.0269601 3.36192881,10.1388889 3.5,10.1388889 L14.5,10.1388889 C14.6380712,10.1388889 14.75,10.0269601 14.75,9.88888889 L14.75,1 C14.75,0.861928813 14.6380712,0.75 14.5,0.75 Z" id="矩形" fill-rule="nonzero"></path>
                    <rect id="矩形" x="6.5" y="12.4444444" width="5" height="1.55555556"></rect>
                    <path d="M0.5,3.37037037 L1.5,3.37037037 L1.5,3.37037037 L1.5,7.51851852 L0.5,7.51851852 C0.223857625,7.51851852 -1.4962461e-16,7.29466089 0,7.01851852 L0,3.87037037 C-3.38176876e-17,3.594228 0.223857625,3.37037037 0.5,3.37037037 Z" id="矩形"></path>
                    <path d="M16.5,3.37037037 L17.5,3.37037037 C17.7761424,3.37037037 18,3.594228 18,3.87037037 L18,7.01851852 C18,7.29466089 17.7761424,7.51851852 17.5,7.51851852 L16.5,7.51851852 L16.5,7.51851852 L16.5,3.37037037 Z" id="矩形备份-47"></path>
                    <rect id="矩形" x="5.5" y="3.62962963" width="2" height="3.62962963" rx="1"></rect>
                    <rect id="矩形备份-46" x="10.5" y="3.62962963" width="2" height="3.62962963" rx="1"></rect>
                </g>
            </g>
        </g>
    </g>
</svg>