<?xml version="1.0" encoding="UTF-8"?>
<svg width="18px" height="18px" viewBox="0 0 18 18" version="1.1" xmlns="http://www.w3.org/2000/svg" xmlns:xlink="http://www.w3.org/1999/xlink">
    <title>集成</title>
    <g id="页面-1" stroke="none" stroke-width="1">
        <g id="切图" transform="translate(-81.000000, -161.000000)">
            <g id="编组-5" transform="translate(61.000000, 32.000000)">
                <g id="集成-normal" transform="translate(20.000000, 129.000000)">
                    <g id="编组-9" transform="translate(1.648036, 0.137088)">
                        <path d="M8.32797427,0.120560464 L15.1799379,3.82929459 C15.5027834,4.00403982 15.7039273,4.34163048 15.7039273,4.70873412 L15.7039273,12.0170902 C15.7039273,12.3841938 15.5027834,12.7217845 15.1799379,12.8965297 L8.32797427,16.6052639 C8.03099031,16.7660111 7.67293701,16.7660111 7.37595305,16.6052639 L0.523989388,12.8965297 C0.201143932,12.7217845 1.32338585e-13,12.3841938 1.32338585e-13,12.0170902 L1.28119737e-13,4.70873412 C1.28785871e-13,4.34163048 0.201143932,4.00403982 0.523989388,3.82929459 L7.37595305,0.120560464 C7.67293701,-0.0401868214 8.03099031,-0.0401868214 8.32797427,0.120560464 Z M11.6330257,5.82389848 L7.89296366,7.79691216 L4.15232253,5.82389848 L3.68563799,6.70832233 L7.351,8.643 L7.35196366,11.8629122 L8.35196366,11.8629122 L8.351,8.686 L12.0997102,6.70832233 L11.6330257,5.82389848 Z" id="形状结合"></path>
                    </g>
                </g>
            </g>
        </g>
    </g>
</svg>