<?xml version="1.0" encoding="UTF-8"?>
<svg width="18px" height="18px" viewBox="0 0 18 18" version="1.1" xmlns="http://www.w3.org/2000/svg" xmlns:xlink="http://www.w3.org/1999/xlink">
    <title>日志</title>
    <g id="页面-1" stroke="none" stroke-width="1">
        <g id="切图" transform="translate(-81.000000, -476.000000)">
            <g id="编组-5" transform="translate(61.000000, 32.000000)">
                <g id="list-number" transform="translate(20.000000, 444.000000)">
                    <path d="M16,2.5 C16.5522847,2.5 17,2.94771525 17,3.5 L17,15.5 C17,16.0522847 16.5522847,16.5 16,16.5 L1,16.5 C0.44771525,16.5 2.8967998e-16,16.0522847 0,15.5 L0,3.5 C-6.76353751e-17,2.94771525 0.44771525,2.5 1,2.5 L16,2.5 Z M16,6.5 L1,6.5 L1,15.5 L16,15.5 L16,6.5 Z" id="形状结合"></path>
                    <rect id="矩形" x="7" y="9.5" width="5" height="1"></rect>
                    <rect id="矩形备份-17" x="7" y="11.5" width="5" height="1"></rect>
                    <rect id="矩形备份-8" x="5" y="9.5" width="1" height="1"></rect>
                    <rect id="矩形备份-18" x="5" y="11.5" width="1" height="1"></rect>
                    <rect id="矩形" x="5" y="0" width="1" height="3"></rect>
                    <rect id="矩形备份-4" x="11" y="0" width="1" height="3"></rect>
                </g>
            </g>
        </g>
    </g>
</svg>