<?xml version="1.0" encoding="UTF-8"?>
<svg width="18px" height="18px" viewBox="0 0 18 18" version="1.1" xmlns="http://www.w3.org/2000/svg" xmlns:xlink="http://www.w3.org/1999/xlink">
    <title>监控</title>
    <g id="页面-1" stroke="none" stroke-width="1">
        <g id="切图" transform="translate(-81.000000, -692.000000)">
            <g id="编组-5" transform="translate(61.000000, 32.000000)">
                <g id="编组-8" transform="translate(20.000000, 660.000000)">
                    <g id="编组-10" transform="translate(2.000000, 2.000000)">
                        <path d="M7,0 C10.8659932,0 14,3.13400675 14,7 C14,10.8659932 10.8659932,14 7,14 C3.13400675,14 0,10.8659932 0,7 C0,3.13400675 3.13400675,0 7,0 Z M7,3 C4.790861,3 3,4.790861 3,7 C3,9.209139 4.790861,11 7,11 C9.209139,11 11,9.209139 11,7 C11,4.790861 9.209139,3 7,3 Z M7,5 C8.1045695,5 9,5.8954305 9,7 C9,8.1045695 8.1045695,9 7,9 C5.8954305,9 5,8.1045695 5,7 C5,5.8954305 5.8954305,5 7,5 Z" id="形状结合"></path>
                        <path d="M7,12 C9.22086333,12 11.159907,13.2066136 12.1973296,15.0000394 L1.80267039,15.0000394 C2.84009304,13.2066136 4.77913667,12 7,12 Z" id="形状结合"></path>
                    </g>
                </g>
            </g>
        </g>
    </g>
</svg>