<?xml version="1.0" encoding="UTF-8"?>
<svg width="18px" height="18px" viewBox="0 0 18 18" version="1.1" xmlns="http://www.w3.org/2000/svg" xmlns:xlink="http://www.w3.org/1999/xlink">
    <title>编组 36</title>
    <g id="页面-1" stroke="none" stroke-width="1" fill="none" fill-rule="evenodd">
        <g id="切图" transform="translate(-20, -837)" fill="#A2A2A2">
            <g id="编组-36" transform="translate(20, 837)">
                <g id="编组-34" transform="translate(0.7713, 0)">
                    <path d="M7.67081352,0.380923225 L0.911988856,4.79197098 C0.680737912,4.94289352 0.615618871,5.25270634 0.766541407,5.48395728 C0.802128817,5.53848606 0.848024421,5.58553873 0.90165043,5.62247249 L7.6648397,10.2804743 C8.02052612,10.5254457 8.48993393,10.5276373 8.84789223,10.2859977 L15.5559836,5.75770402 C15.7848586,5.60320208 15.8451498,5.29241367 15.6906479,5.06353868 C15.654802,5.01043752 15.6090847,4.96472029 15.5559836,4.92887437 L8.83215535,0.389957529 C8.48209124,0.153646927 8.02451166,0.150087327 7.67081352,0.380923225 Z" id="路径-11"></path>
                    <path d="M15.8873969,7.72556993 C16.1346801,7.56955525 16.4616177,7.64354306 16.6176324,7.89082633 C16.7736471,8.1381096 16.6996593,8.4650472 16.452376,8.62106188 L8.51119955,13.6312679 C8.3363373,13.7415911 8.11325025,13.7400234 7.93995574,13.6272536 L0.240719249,8.61704759 C-0.00434699259,8.45757303 -0.0737327587,8.12962791 0.085741803,7.88456167 C0.245216365,7.63949543 0.573161482,7.57010966 0.818227724,7.72958422 L8.23241466,12.5536688 L15.8873969,7.72556993 Z" id="路径-12" fill-rule="nonzero"></path>
                    <path d="M15.8873969,11.4832245 C16.1346801,11.3272098 16.4616177,11.4011976 16.6176324,11.6484809 C16.7736471,11.8957641 16.6996593,12.2227017 16.452376,12.3787164 L8.51119955,17.3889224 C8.3363373,17.4992456 8.11325025,17.4976779 7.93995574,17.3849082 L0.240719249,12.3747021 C-0.00434699259,12.2152276 -0.0737327587,11.8872824 0.085741803,11.6422162 C0.245216365,11.39715 0.573161482,11.3277642 0.818227724,11.4872388 L8.23241466,16.3113234 L15.8873969,11.4832245 Z" id="路径-12备份" fill-rule="nonzero"></path>
                </g>
            </g>
        </g>
    </g>
</svg>