<?xml version="1.0" encoding="UTF-8"?>
<svg width="18px" height="18px" viewBox="0 0 18 18" version="1.1" xmlns="http://www.w3.org/2000/svg" xmlns:xlink="http://www.w3.org/1999/xlink">
    <title>用户访问监测</title>
    <g id="页面-1" stroke="none" stroke-width="1">
        <g id="切图" transform="translate(-81.000000, -548.000000)">
            <g id="编组-5" transform="translate(61.000000, 32.000000)">
                <g id="图标" transform="translate(20.000000, 516.000000)">
                    <path d="M4,10 L7,10 C7.55228475,10 8,10.4477153 8,11 L8,14 C8,15.6568542 6.65685425,17 5,17 L4,17 C2.34314575,17 1,15.6568542 1,14 L1,13 C1,11.3431458 2.34314575,10 4,10 Z" id="矩形" fill="#A2A2A2"></path>
                    <path d="M4,2 L5,2 C6.65685425,2 8,3.34314575 8,5 L8,8 C8,8.55228475 7.55228475,9 7,9 L4,9 C2.34314575,9 1,7.65685425 1,6 L1,5 C1,3.34314575 2.34314575,2 4,2 Z" id="矩形备份-20" fill="#A2A2A2"></path>
                    <path d="M12.7928932,2 C13.4832492,2 14.1082492,2.27982203 14.5606602,2.73223305 C15.0130712,3.18464406 15.2928932,3.80964406 15.2928932,4.5 L15.2928932,4.5 L15.2928932,7.5 L11.7928932,8 C11.1025373,8 10.4775373,7.72017797 10.0251263,7.26776695 C9.57271525,6.81535594 9.29289322,6.19035594 9.29289322,5.5 L9.29289322,5.5 L9.29289322,4.5 C9.29289322,3.80964406 9.57271525,3.18464406 10.0251263,2.73223305 C10.4775373,2.27982203 11.1025373,2 11.7928932,2 L11.7928932,2 Z" id="矩形备份-21" stroke="#A2A2A2" transform="translate(12.292893, 5.000000) rotate(45.000000) translate(-12.292893, -5.000000) "></path>
                    <path d="M10,10 L13,10 C14.6568542,10 16,11.3431458 16,13 L16,14 C16,15.6568542 14.6568542,17 13,17 L12,17 C10.3431458,17 9,15.6568542 9,14 L9,11 C9,10.4477153 9.44771525,10 10,10 Z" id="矩形备份-19" fill="#A2A2A2"></path>
                </g>
            </g>
        </g>
    </g>
</svg>