<?xml version="1.0" encoding="UTF-8"?>
<svg width="18px" height="18px" viewBox="0 0 18 18" version="1.1" xmlns="http://www.w3.org/2000/svg" xmlns:xlink="http://www.w3.org/1999/xlink">
    <title>用户访问监测</title>
    <g id="页面-1" stroke="none" stroke-width="1">
        <g id="切图" transform="translate(-81.000000, -548.000000)">
            <g id="编组-5" transform="translate(61.000000, 32.000000)">
                <g id="图标" transform="translate(20.000000, 516.000000)">
                    <path d="M4,10 L7,10 C7.55228475,10 8,10.4477153 8,11 L8,14 C8,15.6568542 6.65685425,17 5,17 L4,17 C2.34314575,17 1,15.6568542 1,14 L1,13 C1,11.3431458 2.34314575,10 4,10 Z" id="矩形"></path>
                    <path d="M4,2 L5,2 C6.65685425,2 8,3.34314575 8,5 L8,8 C8,8.55228475 7.55228475,9 7,9 L4,9 C2.34314575,9 1,7.65685425 1,6 L1,5 C1,3.34314575 2.34314575,2 4,2 Z" id="矩形备份-20"></path>
                    <path d="M12.7928932,1.5 C14.4497475,1.5 15.7928932,2.84314575 15.7928932,4.5 L15.7928932,7.5 C15.7928932,8.05228475 15.345178,8.5 14.7928932,8.5 L11.7928932,8.5 C10.136039,8.5 8.79289322,7.15685425 8.79289322,5.5 L8.79289322,4.5 C8.79289322,2.84314575 10.136039,1.5 11.7928932,1.5 L12.7928932,1.5 Z M12.7928932,2.5 L11.7928932,2.5 C10.7385314,2.5 9.8747281,3.31587779 9.79837896,4.35073766 L9.79289322,4.5 L9.79289322,5.5 C9.79289322,6.5543618 10.608771,7.41816512 11.6436309,7.49451426 L11.7928932,7.5 L14.7928932,7.5 L14.7928932,4.5 C14.7928932,3.4456382 13.9770154,2.58183488 12.9421556,2.50548574 L12.7928932,2.5 Z" id="矩形备份-21" transform="translate(12.292893, 5.000000) rotate(45.000000) translate(-12.292893, -5.000000) "></path>
                    <path d="M10,10 L13,10 C14.6568542,10 16,11.3431458 16,13 L16,14 C16,15.6568542 14.6568542,17 13,17 L12,17 C10.3431458,17 9,15.6568542 9,14 L9,11 C9,10.4477153 9.44771525,10 10,10 Z" id="矩形备份-19"></path>
                </g>
            </g>
        </g>
    </g>
</svg>