<?xml version="1.0" encoding="UTF-8"?>
<svg width="18px" height="18px" viewBox="0 0 18 18" version="1.1" xmlns="http://www.w3.org/2000/svg" xmlns:xlink="http://www.w3.org/1999/xlink">
    <title>更新日志</title>
    <g id="页面-1" stroke="none" stroke-width="1">
        <g id="切图" transform="translate(-81.000000, -53.000000)">
            <g id="编组-5" transform="translate(61.000000, 32.000000)">
                <g id="更新日志" transform="translate(20.000000, 21.000000)">
                    <path d="M15,1 C15.5522847,1 16,1.44771525 16,2 L16,16 C16,16.5522847 15.5522847,17 15,17 L3,17 C2.44771525,17 2,16.5522847 2,16 L2,2 C2,1.44771525 2.44771525,1 3,1 L15,1 Z M11.5,8.70904541 L11.5,10.5040283 L7.5,10.5040283 L7.5,12.161377 L11.5,12.161377 L11.5,13.84729 L14.4369507,11.2781677 L11.5,8.70904541 Z M6.43695068,4.70904541 L3.5,7.27816772 L6.43695068,9.84729004 L6.43695068,8.16137695 L10.4369507,8.16137695 L10.4369507,6.50402832 L6.43695068,6.50402832 L6.43695068,4.70904541 Z" id="形状结合"></path>
                </g>
            </g>
        </g>
    </g>
</svg>