<?xml version="1.0" encoding="UTF-8"?>
<svg width="18px" height="18px" viewBox="0 0 18 18" version="1.1" xmlns="http://www.w3.org/2000/svg" xmlns:xlink="http://www.w3.org/1999/xlink">
    <title>安全巡检</title>
    <g id="页面-1" stroke="none" stroke-width="1">
        <g id="切图" transform="translate(-81.000000, -620.000000)">
            <g id="编组-5" transform="translate(61.000000, 32.000000)">
                <g id="图标" transform="translate(20.000000, 588.000000)">
                    <path d="M9.50216835,1 L9.91723523,1.37945097 C9.93336695,1.39343156 11.7676056,2.98526416 15.9315987,2.98526416 C16.0903809,2.98526416 16.2512581,2.98319151 16.4164929,2.97822498 L16.4164929,2.97822498 L16.4164929,2.97922219 L17,2.96219129 L17,10.1793464 C17,12.0694447 16.2438417,14.8255383 9.70381477,16.9349267 L9.70381477,16.9349267 L9.50003143,17 L9.29618523,16.9349267 C2.75626309,14.8255383 2,12.0694447 2,10.1803436 L2,2.96219129 L2.58455462,2.97922219 C2.75085791,2.98418873 2.91175604,2.98626138 3.07051723,2.98626138 C7.26891077,2.98626138 9.06874903,1.39640366 9.08381228,1.37945097 L9.08381228,1.37945097 L9.50216835,1 Z M10,5 L9,5 L9,8 L6,8 L6,9 L9,9 L9,12 L10,12 L10,9 L13,9 L13,8 L10,8 L10,5 Z" id="形状结合"></path>
                </g>
            </g>
        </g>
    </g>
</svg>