<?xml version="1.0" encoding="UTF-8"?>
<svg width="19px" height="19px" viewBox="0 0 19 19" version="1.1" xmlns="http://www.w3.org/2000/svg" xmlns:xlink="http://www.w3.org/1999/xlink">
    <title>可用性监测</title>
    <g id="页面-1" stroke="none" stroke-width="1">
        <g id="切图" transform="translate(-81.000000, -584.000000)">
            <g id="编组-5" transform="translate(61.000000, 32.000000)">
                <g id="编组-26" transform="translate(18.000000, 551.000000)">
                    <path d="M15.7667278,9.26676141 C15.3366491,13.3795761 12.0402494,16.5784294 8.03754886,16.5784294 C4.03484836,16.5784294 0.738448594,13.3795761 0.308369896,9.26676141 Z" id="形状结合" fill="#A2A2A2" transform="translate(8.037549, 12.922812) rotate(45.000000) translate(-8.037549, -12.922812) "></path>
                    <g id="编组-4" transform="translate(12.826930, 8.213377) rotate(-45.000000) translate(-12.826930, -8.213377) translate(7.668468, 1.781810)">
                        <path d="M6.05025366,12.8631353 C8.59388346,11.6047764 10.3169235,9.176053 10.3169235,6.38638009 C10.3169235,3.66207489 8.67368606,1.28200182 6.22769763,-1.98635531e-14" id="形状" stroke="#A2A2A2" stroke-width="1.05079361"></path>
                        <ellipse id="椭圆形" fill="#A2A2A2" cx="2.13333493" cy="6.4152161" rx="2.13333493" ry="2.14385588"></ellipse>
                        <path d="M4.47705384,10.0802023 C5.77117225,9.22361974 6.61038877,7.84720919 6.61038877,6.29522221 C6.61038877,4.78276855 5.81338195,3.43706041 4.57505608,2.57670673" id="形状" stroke="#A2A2A2" stroke-width="1.05079361"></path>
                    </g>
                </g>
            </g>
        </g>
    </g>
</svg>