<?xml version="1.0" encoding="UTF-8"?>
<svg width="19px" height="19px" viewBox="0 0 19 19" version="1.1" xmlns="http://www.w3.org/2000/svg" xmlns:xlink="http://www.w3.org/1999/xlink">
    <title>可用性监测</title>
    <g id="页面-1" stroke="none" stroke-width="1">
        <g id="切图" transform="translate(-81.000000, -584.000000)">
            <g id="编组-5" transform="translate(61.000000, 32.000000)">
                <g id="指标备份" transform="translate(20.286539, 551.017989)">
                    <g id="编组-26" transform="translate(0.978288, -0.000000)">
                        <path d="M1.89258531,4.85425033 L5.871,8.83225033 L5.89551778,8.80697877 C6.68698093,8.01551561 7.94861464,7.97894845 8.79061754,8.69508858 L8.9199484,8.8144182 C9.7571762,9.651646 9.76050695,11.0057297 8.92738784,11.8388488 C8.91899206,11.8472446 8.91054338,11.8555554 8.90204286,11.8637813 L12.823295,15.7849601 C9.6109843,18.3890476 5.01814685,18.3200718 2.18781018,15.4897352 C-0.642526487,12.6593985 -0.711502293,8.06656105 1.89258531,4.85425033 Z" id="形状结合"></path>
                        <g id="编组-4" transform="translate(9.562103, 8.195388) rotate(-45.000000) translate(-9.562103, -8.195388) translate(4.403641, 1.763821)">
                            <path d="M6.47160034,-0.465352849 C9.15084997,0.938906819 10.8423203,3.52561252 10.8423203,6.38638009 C10.8423203,9.22556671 9.17603306,11.791721 6.54120651,13.2012873 L6.28322318,13.3340567 L5.81728415,12.3922138 C8.25511796,11.1861933 9.79152671,8.90186641 9.79152671,6.38638009 C9.79152671,4.0160632 8.42785864,1.84891886 6.22320236,0.596057112 L5.98379493,0.465352849 L6.47160034,-0.465352849 Z" id="形状"></path>
                            <path d="M4.87483545,2.14522773 C6.28650562,3.12601611 7.13578557,4.64452884 7.13578557,6.29522221 C7.13578557,7.90856848 6.32435279,9.39432606 4.97365986,10.3750464 L4.76704549,10.5183195 L4.18706219,9.64208515 C5.37633097,8.854903 6.08499196,7.62441927 6.08499196,6.29522221 C6.08499196,5.07651752 5.48958428,3.94023995 4.47114866,3.15186437 L4.27527671,3.00818574 L4.87483545,2.14522773 Z" id="形状"></path>
                        </g>
                    </g>
                </g>
            </g>
        </g>
    </g>
</svg>