<?xml version="1.0" encoding="UTF-8"?>
<svg width="174px" height="88px" viewBox="0 0 174 88" version="1.1" xmlns="http://www.w3.org/2000/svg" xmlns:xlink="http://www.w3.org/1999/xlink">
    <title>编组</title>
    <g id="页面-1" stroke="none" stroke-width="1" fill="none" fill-rule="evenodd">
        <g id="编组" fill="#1C3B3B" fill-rule="nonzero">
            <path d="M133.413419,24 C131.119831,24 128.963271,24.8819122 127.348985,26.4839849 L120.825919,32.9411871 C119.066177,34.6831301 118.162099,37.1018994 118.347323,39.5815938 C118.360507,39.716959 118.373691,39.8523243 118.387091,39.9919801 C118.62073,41.8954603 119.46321,43.6112312 120.825919,44.9558739 C121.765443,45.8858397 122.801794,46.4753544 124.058815,46.8857407 C124.124951,47.2611594 124.16018,47.6408687 124.16018,48.0207924 C124.16018,49.7322728 123.489956,51.3388505 122.272488,52.5438374 L121.871131,52.9411376 C119.692526,52.2031717 117.875292,51.1249691 116.234638,49.5008003 C114.056032,47.3439661 112.613786,44.6197132 112.071296,41.6292348 L111.996299,41.2143435 L111.665401,41.4807835 C111.440625,41.6596974 111.228816,41.8519117 111.030407,42.0482021 L104.507342,48.5054044 C101.164219,51.8146669 101.164219,57.2065381 104.507342,60.5158006 C106.178903,62.1704319 108.375231,63 110.576098,63 C112.776966,63 114.968972,62.1704319 116.640533,60.5158006 L123.163598,54.0588129 C126.50672,50.7493358 126.50672,45.3619697 123.163598,42.0482021 C122.272488,41.1665044 121.209769,40.5027641 120.0057,40.0750012 C119.939564,39.686282 119.904119,39.2977772 119.904119,38.918068 C119.904119,37.0581363 120.645234,35.2943118 122.00362,33.9496691 C124.186765,34.6874206 126.122871,35.8838265 127.759202,37.5034902 C129.933485,39.6558194 131.371408,42.3757818 131.922544,45.3750557 L131.997541,45.7897325 L132.328439,45.523507 C132.553432,45.3445931 132.765024,45.1523788 132.967972,44.9515834 L139.491037,38.4945956 C142.834159,35.1851186 142.838482,29.7934619 139.491037,26.4839849 C137.872428,24.8819122 135.719974,24 133.42228,24 L133.413419,24 Z" id="路径"></path>
            <path d="M129.783711,0 L44.2162886,0 C19.8354137,0 0,19.7383758 0,44.0000378 C0,68.2615052 19.8354137,88 44.2162886,88 L129.783711,88 C154.1645,88 174,68.2615052 174,44.0000378 C174,19.7383758 154.1645,0 129.783711,0 Z M87.5792929,68.9831918 C86.1687087,69.2735528 84.581314,69.3263064 83.5024663,68.2044276 C83.1044259,69.1150758 82.1759538,68.6355369 81.459611,68.5168413 C81.3933071,68.7014789 81.335887,68.86428 81.2739166,69.0491338 C78.8906577,69.2076108 77.1043512,66.7876475 75.9680833,64.9615946 C73.7128821,63.7471807 71.1528127,63.0079817 68.8490752,61.736274 C68.7164673,63.8308514 69.1764781,66.4268042 67.1732752,67.7776423 C67.0716525,71.8035636 73.292957,68.2528571 73.8632577,71.2535424 C73.4212314,71.301972 72.9304521,71.1830602 72.5766143,71.5218507 C70.9539008,73.0927838 69.0924064,70.3340299 67.2220281,71.4736374 C64.7104949,72.7319405 64.4584965,73.7615005 61.350011,74.0211607 C61.1777507,73.7615005 61.2483883,73.5898351 61.3942137,73.4315743 C62.2698159,72.4195267 62.3317863,71.2271656 63.8262255,70.7958401 C62.2875836,70.5539086 61.0007235,71.3988311 59.7051962,72.0675478 C58.0205123,72.7539932 58.0339465,70.5186675 55.4428919,72.1862434 C55.155358,71.9531763 55.2925162,71.7419457 55.4561093,71.5616321 C56.1148153,70.7608152 56.9815337,70.6419034 57.9587587,70.6860088 C53.1523718,68.0195738 50.8885034,73.9463543 48.6688376,70.9984226 C48.0012478,71.174412 47.7492494,71.7726465 47.3291077,72.1951077 C46.9666027,71.7992395 47.2407024,71.3194844 47.2584701,70.853134 C46.8251109,70.6507677 46.2766949,70.5539086 46.4049692,69.8631391 C45.5560185,69.5771022 44.9636165,70.0786938 44.3313454,70.5539086 C43.7608281,70.113935 44.7159517,69.471595 44.8927623,69.0138927 C45.4013093,68.1339453 46.5596784,68.8335791 47.1477468,68.1998873 C48.8192133,67.2539979 51.1493856,68.7894737 53.059633,68.5300297 C54.5319708,68.7146673 56.3535962,67.2098925 55.6151521,65.7094417 C54.0411915,63.7076155 54.3196248,61.08961 54.284306,58.6960235 C54.0897278,57.3010799 50.7249103,55.5234565 49.7522356,54.0186817 C48.5494472,52.6635195 47.6120912,51.0928027 46.6747353,49.5484626 C43.2921501,43.0318795 44.3577804,34.6587589 40.0952593,28.6087424 C38.167461,29.6692195 35.6559277,29.1676279 33.9935619,27.7463076 C33.0958583,28.5603129 33.0559893,29.6251141 32.9853517,30.7560734 C30.8319899,28.6132827 31.101756,24.5650925 32.8217586,22.1803703 C33.5248839,21.2387834 34.3649507,20.4643865 35.3023066,19.7823732 C35.514436,19.6283932 35.5852902,19.4787806 35.5807399,19.2411732 C37.2831915,11.6203967 48.8944011,13.0899952 52.5643034,18.4887857 C55.2262123,21.8108789 56.0309603,26.2062916 59.0508238,29.2908638 C63.1142163,33.7171936 67.7437926,37.6155549 71.4932163,42.3279217 C75.0393946,46.6355558 77.5730291,51.6867131 79.783811,56.7776518 C80.6858482,58.4670642 80.6947321,60.5395888 82.0301284,61.9827457 C82.6888344,62.854045 85.9078265,65.2255788 85.2092515,66.0659609 C85.6116255,66.9370439 88.6182716,68.1382694 87.5747426,68.9831918 L87.5792929,68.9831918 Z M143.972541,42.9879903 L137.433151,49.4954928 C135.690831,51.2292269 133.537685,52.5227712 131.202963,53.2310531 L131.083572,53.2662943 L131.03937,53.3806658 C130.278824,55.3783841 129.124789,57.1603316 127.603698,58.6696467 L121.064091,65.1771492 C118.212154,68.0152497 114.418528,69.5771022 110.37702,69.5771022 C106.335729,69.5771022 102.541886,68.0152497 99.6899489,65.1771492 C93.7960472,59.3119866 93.7960472,49.7726654 99.6899489,43.9075028 L106.229556,37.4000003 C107.980544,35.657618 110.076485,34.403639 112.45086,33.6776284 L112.570251,33.6423872 L112.614454,33.5280157 C113.374999,31.5302974 114.533368,29.7440259 116.059009,28.2215224 L122.598399,21.7140198 C125.450336,18.8759842 129.244179,17.3139804 133.28547,17.3139804 C137.326978,17.3139804 141.120605,18.8759842 143.972541,21.7140198 C146.824695,24.5519041 148.394322,28.3272458 148.394322,32.348843 C148.394322,36.3704402 146.824695,40.1498898 143.972541,42.9836662 L143.972541,42.9879903 Z" id="形状"></path>
            <path d="M60.7901276,61.0044602 C60.201615,63.3010092 60.0115075,67.2085769 57.0330083,67.3220886 C56.7885527,68.6474325 57.9473878,69.1465271 59.0066217,68.7199105 C60.052324,68.2388795 60.5501085,69.1012562 60.9032604,69.9589497 C62.5192853,70.1948935 64.9094937,69.4188214 65,67.4991579 C62.587165,66.1057963 61.8402665,63.4553316 60.7945642,61 L60.7901276,61.0044602 Z" id="路径"></path>
        </g>
    </g>
</svg>