<?xml version="1.0" encoding="UTF-8"?>
<svg id="_图层_1" data-name="图层 1" xmlns="http://www.w3.org/2000/svg" version="1.1" viewBox="0 0 64 64">
  <defs>
    <style>
      .cls-1 {
        fill: #007fff;
        stroke-width: 0px;
      }
    </style>
  </defs>
  <path class="cls-1" d="M49.9,30.5c-9.8-6.5-20.8-15.1-33-24.4s-1.8-.4-2.2.5c-2.7,6.2,0,11.7,4.2,14.9s10.7,6.1,14.6,7.7c.2,0,0,.3-.1.2-7.2-2.7-12.2-4.7-19-9.2-.7-.5-1.5-.3-1.6.6-.6,5.9,3.9,10.6,8.8,12.1,3,1,6.4,1.5,9.5,1.8.2,0,.1.2,0,.2-4,0-8.8-.8-13-2.2s-1.2.3-1,.8c.7,2.5,4.3,6.3,10,7.1,1.1.2,2.2.2,3.2.1s.3.1.2.3c0,0-3.9,5.7-4.1,6s0,.3.2.3,4.9,0,5.1,0,.4.1.3.3-6.9,9.8-7.2,10.2,0,.7.6.4,22.1-13.9,22.7-14.3.2-.4-.2-.4-4.3,0-4.6,0-.4-.2-.2-.3,5.2-4.5,7-6.1,2.8-4.8-.3-6.9Z"/>
</svg>