<?xml version="1.0" encoding="UTF-8"?>
<svg width="119px" height="167px" viewBox="0 0 119 167" version="1.1" xmlns="http://www.w3.org/2000/svg" xmlns:xlink="http://www.w3.org/1999/xlink">
    <title>编组</title>
    <g id="页面-1" stroke="none" stroke-width="1" fill="none" fill-rule="evenodd" fill-opacity="0.5">
        <g id="编组" fill="#00E04E" fill-rule="nonzero">
            <g id="形状">
                <path d="M52.8053295,96.8949046 C23.1493232,96.8949046 0,112.293308 0,131.947664 C0,151.60202 23.1493232,167 52.8053295,167 C82.4618014,167 105.611082,151.60202 105.611082,131.947664 C105.611082,112.293308 82.4618014,96.8949046 52.8053295,96.8949046 Z M52.8053295,152.853995 C34.5362725,152.853995 14.1398516,144.215918 14.1398516,131.947664 C14.1398516,119.67941 34.5362725,111.041333 52.8053295,111.041333 C57.0598034,111.041333 61.4395458,111.542208 65.5687512,112.418209 C71.4500228,113.294634 99.2291599,121.807386 90.3448298,136.829816 C85.9650874,146.469219 68.5722328,152.853995 52.8053295,152.853995 Z"></path>
                <path d="M86.7162752,83.2497744 C66.069402,56.7097675 37.5395003,45.1926137 21.647794,57.0853176 C16.3922724,61.0914682 13.0137047,67.1002708 12.012657,74.7370218 C10.0105616,89.634127 16.7676547,108.788032 30.0316002,125.938438 C45.1724149,145.467893 64.5678727,156.859722 80.084239,156.859722 C85.7149736,156.859722 90.8454806,155.357522 95.0999545,152.227796 C100.355307,148.222069 103.734171,142.212843 104.735049,134.576515 C106.737229,119.554085 99.9799245,100.400181 86.7162752,83.2497744 Z M88.7180321,139.083117 C85.9655106,142.338167 83.4626798,143.339493 81.0851174,142.713717 C71.199909,143.590142 54.6826643,134.952065 41.0431672,117.300784 C30.281841,103.529906 24.2755548,87.5061506 25.7771263,76.6147726 C26.2776502,72.7339465 27.6541225,69.9797709 29.9064587,68.3522458 C31.6583133,67.1002708 34.035791,66.3491705 36.7886933,66.3491705 C46.7992126,66.3491705 62.4408474,74.9872475 75.4543828,91.887428 C84.2134444,103.154356 89.8446022,115.923485 90.7202121,126.189087 C92.8476606,129.819264 92.8476606,134.07564 88.7180321,139.083117 Z"></path>
                <path d="M83.3374113,0 C60.1881304,0 47.6752457,40.3103346 47.6752457,78.2422978 C47.6752457,116.173711 60.1881304,156.484172 83.3374113,156.484172 C106.486692,156.484172 119,116.173711 119,78.2422978 C119,40.3103346 106.486692,0 83.3374113,0 Z M85.7149736,141.962617 C73.7023166,149.348719 65.3186374,112.292884 65.3186374,112.292884 L65.4439059,112.292884 C63.1911888,102.778806 61.8149281,91.3869767 61.8149281,78.3671989 C61.8149281,39.1836418 74.5783497,14.1461742 83.3374113,14.1461742 C92.096896,14.1461742 104.860318,39.1836418 104.860318,78.3671989 C104.860318,114.045734 94.2239214,138.081791 85.7149736,141.962617 Z"></path>
            </g>
        </g>
    </g>
</svg>