<svg width="256" height="256" viewBox="0 0 256 256" fill="none" xmlns="http://www.w3.org/2000/svg">
<mask id="mask0_1228_372" style="mask-type:alpha" maskUnits="userSpaceOnUse" x="0" y="0" width="256" height="256">
<rect width="256" height="256" fill="#D9D9D9"/>
</mask>
<g mask="url(#mask0_1228_372)">
<path fill-rule="evenodd" clip-rule="evenodd" d="M216.025 128H189.431C186.868 128 184.502 129.367 183.235 131.581L146.793 195.239C145.525 197.453 143.16 198.82 140.596 198.82H116.23C112.293 198.82 109.102 195.649 109.102 191.738L109.102 138.929L109.102 138.889C109.102 133.999 105.112 130.036 100.191 130.036C97.0119 130.036 94.2213 131.691 92.6445 134.18L57.6907 195.239C56.4235 197.453 54.0577 198.82 51.4946 198.82H19.9998V182L89.2333 60.7674C90.4995 58.5503 92.8673 57.1803 95.4331 57.1803H119.795C123.732 57.1803 126.923 60.351 126.923 64.2622V128H136.119C138.694 128 141.069 126.62 142.331 124.39L178.34 60.7902C179.602 58.5603 181.977 57.1803 184.553 57.1803H208.897C212.833 57.1803 216.025 60.351 216.025 64.2622V128ZM216.025 128L227.163 151.791L235.335 169.248C236.32 171.353 236.205 173.804 235.026 175.808L223.553 195.311C222.275 197.484 219.932 198.82 217.399 198.82H175.156L216.025 128Z" fill="url(#paint0_linear_1228_372)"/>
</g>
<defs>
<linearGradient id="paint0_linear_1228_372" x1="105.869" y1="43.0163" x2="155.357" y2="226.399" gradientUnits="userSpaceOnUse">
<stop stop-color="#3700D4"/>
<stop offset="1" stop-color="#C482F1"/>
</linearGradient>
</defs>
</svg>
