<?xml version="1.0" encoding="UTF-8"?>
<svg id="_图层_1" data-name="图层 1" xmlns="http://www.w3.org/2000/svg" version="1.1" viewBox="0 0 48 48">
  <defs>
    <style>
      .cls-1 {
        fill: #c0000e;
        stroke-width: 0px;
      }
    </style>
  </defs>
  <g id="logo">
    <g id="ROMA_Logo_定稿-" data-name="ROMA Logo 定稿-">
      <g id="ROMA">
        <path id="Combined-Shape" class="cls-1" d="M27.9,39h6l3-3.8c0,0,.2-.2.4-.2h6.8c.2-.6.8-1,1.4-1s1.5.7,1.5,1.5-.7,1.5-1.5,1.5-1.2-.4-1.4-1h-6.6l-3,3.8c0,0-.2.2-.4.2h-6.2c-.2.6-.8,1-1.4,1s-1.5-.7-1.5-1.5.7-1.5,1.5-1.5,1.2.4,1.4,1ZM27.9,23h6.2c0,0,.3,0,.3.1l3,3.9h6.6c.2-.6.8-1,1.4-1s1.5.7,1.5,1.5-.6,1.5-1.4,1.5-1.2-.4-1.4-1h-6.8c0,0-.3,0-.3-.1l-3-3.9h-6c-.2.6-.8,1-1.4,1s-1.5-.7-1.5-1.5.7-1.5,1.5-1.5,1.1.4,1.3,1ZM23.9,31h7.2c.2-.6.8-1,1.4-1s1.5.7,1.5,1.5-.7,1.5-1.5,1.5-1.2-.4-1.4-1h-7.2c-.2.6-.8,1-1.4,1s-1.5-.7-1.5-1.5.7-1.5,1.5-1.5,1.2.4,1.4,1ZM45.9,23h-2.2c-1.6-3-4.6-5.1-8-5.4h-1.3c0-.1-.4-1.3-.4-1.3-1.5-4.4-5.5-7.3-10-7.3s-8.5,2.9-9.9,7.2l-.4,1.2h-1.3c-5.3.7-9.4,5.3-9.4,10.8s4.8,10.8,10.5,10.8h8.5v2h-8.5c-6.9,0-12.5-5.7-12.5-12.8s4.9-12,11.2-12.6c1.7-5,6.3-8.6,11.8-8.6s10.1,3.6,11.8,8.6c4.5.5,8.3,3.4,10.1,7.4Z"/>
      </g>
    </g>
  </g>
</svg>